<svg xmlns="http://www.w3.org/2000/svg" width="755.417" height="240" viewBox="0 0 755.417 240"><path d="M233.232 102.878c-.436-2.913 4.106-6.748 3.46-9.587-.652-2.87-6.407-4.363-7.265-7.148-.866-2.81 3.05-7.283 1.983-9.998-1.074-2.734-6.988-3.346-8.257-5.976-1.275-2.643 1.925-7.653.462-10.181-1.469-2.54-7.408-2.261-9.057-4.675-1.654-2.42.765-7.851-1.06-10.137-1.828-2.29-7.66-1.132-9.651-3.277-1.992-2.146-.406-7.876-2.552-9.867-2.144-1.991-7.74.017-10.03-1.811-2.285-1.825-1.565-7.727-3.985-9.38-2.414-1.649-7.65 1.168-10.188-.3-2.528-1.463-2.695-7.407-5.338-8.682-2.63-1.268-7.384 2.3-10.117 1.226-2.715-1.067-3.771-6.918-6.58-7.783-2.785-.858-6.95 3.382-9.82 2.73-2.838-.645-4.76-6.272-7.672-6.707-2.877-.43-6.361 4.385-9.302 4.168C125.365 5.28 122.629 0 119.677 0c-2.953 0-5.689 5.28-8.586 5.493-2.94.217-6.425-4.599-9.301-4.169-2.914.436-4.836 6.063-7.675 6.708-2.87.652-7.035-3.588-9.82-2.73-2.81.866-3.866 6.717-6.58 7.784-2.734 1.073-7.49-2.494-10.119-1.225-2.643 1.275-2.81 7.218-5.34 8.682-2.538 1.468-7.773-1.348-10.187.3-2.42 1.654-1.7 7.556-3.986 9.381-2.29 1.828-7.885-.18-10.03 1.812-2.146 1.992-.559 7.721-2.55 9.867-1.992 2.145-7.823.988-9.651 3.278-1.825 2.285.594 7.716-1.06 10.136-1.648 2.414-7.588 2.136-9.056 4.675-1.463 2.528 1.738 7.537.463 10.18-1.269 2.63-7.183 3.242-8.257 5.975-1.066 2.715 2.85 7.188 1.984 9.997-.859 2.785-6.614 4.278-7.266 7.148-.645 2.838 3.897 6.673 3.461 9.585-.43 2.877-5.897 5.214-6.114 8.155-.214 2.898 4.847 6.016 4.847 8.968s-5.061 6.07-4.847 8.967c.217 2.94 5.684 5.278 6.114 8.155.436 2.913-4.106 6.748-3.46 9.587.652 2.87 6.407 4.363 7.265 7.148.866 2.81-3.05 7.283-1.983 9.998 1.074 2.734 6.988 3.346 8.257 5.976 1.275 2.643-1.925 7.653-.462 10.181 1.469 2.54 7.408 2.261 9.057 4.675 1.654 2.42-.765 7.851 1.06 10.137 1.828 2.29 7.66 1.132 9.651 3.277 1.992 2.146.406 7.876 2.552 9.868 2.144 1.99 7.74-.018 10.03 1.81 2.285 1.825 1.565 7.727 3.985 9.38 2.414 1.649 7.65-1.168 10.188.3 2.528 1.463 2.695 7.407 5.338 8.682 2.63 1.268 7.384-2.3 10.117-1.226 2.715 1.067 3.77 6.918 6.58 7.783 2.785.859 6.95-3.382 9.82-2.73 2.838.645 4.76 6.272 7.672 6.707 2.877.43 6.361-4.385 9.302-4.168 2.898.214 5.634 5.493 8.587 5.493 2.952 0 5.688-5.279 8.585-5.493 2.94-.217 6.425 4.599 9.301 4.169 2.914-.436 4.836-6.063 7.675-6.708 2.87-.652 7.035 3.588 9.82 2.73 2.81-.866 3.866-6.717 6.58-7.783 2.734-1.074 7.49 2.493 10.119 1.224 2.643-1.275 2.81-7.218 5.34-8.682 2.538-1.468 7.773 1.348 10.187-.3 2.42-1.654 1.7-7.556 3.986-9.381 2.29-1.828 7.885.18 10.03-1.811 2.146-1.993.559-7.722 2.55-9.868 1.992-2.145 7.823-.988 9.651-3.277 1.825-2.286-.594-7.716 1.06-10.137 1.648-2.414 7.588-2.136 9.056-4.675 1.463-2.528-1.738-7.537-.463-10.18 1.269-2.63 7.183-3.242 8.256-5.975 1.067-2.715-2.848-7.188-1.983-9.997.858-2.785 6.614-4.278 7.266-7.148.645-2.838-3.897-6.672-3.461-9.585.43-2.877 5.897-5.214 6.114-8.155.215-2.898-4.847-6.016-4.847-8.968s5.062-6.07 4.847-8.967c-.217-2.94-5.684-5.278-6.114-8.155zm39.483-4.145a13.665 13.665 0 0 0 4.347 2.916c1.663.708 3.432 1.063 5.313 1.063h3.941c1.88 0 3.645-.355 5.293-1.063a13.71 13.71 0 0 0 4.328-2.916 13.719 13.719 0 0 0 2.917-4.329c.708-1.647 1.063-3.412 1.063-5.293V46.533h-4.985v42.578c0 1.237-.231 2.39-.695 3.46a9.2 9.2 0 0 1-1.894 2.819 8.793 8.793 0 0 1-2.801 1.913c-1.07.464-2.221.695-3.458.695h-3.477c-1.236 0-2.389-.231-3.458-.695a9.054 9.054 0 0 1-4.733-4.732 8.61 8.61 0 0 1-.696-3.46V46.533h-4.983v42.578c0 1.88.353 3.646 1.062 5.293a13.715 13.715 0 0 0 2.916 4.329zM316.8 59.207l.464 2.395 23.105 40.337h2.628V46.533h-4.985v42.733l-.502-2.356-23.105-40.377h-2.589v55.406h4.984V59.207zm38.87 42.732h4.984V46.533h-4.984v55.406zm30.947 0l16.306-55.406h-5.138L385.497 89.77l-.154 2.047-.154-2.047-12.249-43.236h-5.177l16.228 55.406h2.626zm54.595-4.752h-26.196V76.63h21.212V71.88h-21.212V51.286h26.196v-4.753H410.03v55.406h31.182v-4.752zm13.677-18.893h6.838l15.031 23.645h5.758l-15.032-23.645c1.881 0 3.645-.355 5.294-1.063a13.727 13.727 0 0 0 4.328-2.917 13.64 13.64 0 0 0 2.915-4.347c.71-1.661 1.063-3.432 1.063-5.312v-4.482c0-1.88-.354-3.652-1.063-5.313a13.626 13.626 0 0 0-2.915-4.347 13.748 13.748 0 0 0-4.328-2.917c-1.649-.708-3.413-1.063-5.294-1.063h-17.58v55.406h4.985V78.294zm0-27.008h12.363a8.62 8.62 0 0 1 3.46.695 8.842 8.842 0 0 1 2.8 1.913 9.237 9.237 0 0 1 1.894 2.82 8.626 8.626 0 0 1 .694 3.459v4.482c0 1.236-.232 2.39-.694 3.457a9.237 9.237 0 0 1-1.893 2.821 8.842 8.842 0 0 1-2.801 1.913 8.62 8.62 0 0 1-3.46.695H454.89V51.286zm44.182 50.363a13.68 13.68 0 0 0 5.35 1.063h3.98c1.88 0 3.666-.355 5.353-1.063a14.226 14.226 0 0 0 4.442-2.916 14.3 14.3 0 0 0 3.051-4.329c.761-1.647 1.14-3.412 1.14-5.293V87.45c0-2.37-.373-4.379-1.119-6.027-.748-1.648-1.738-3.045-2.974-4.192a18.203 18.203 0 0 0-4.192-2.898 60.418 60.418 0 0 0-4.81-2.163 1052.75 1052.75 0 0 1-4.812-1.932c-1.558-.63-2.956-1.378-4.191-2.242-1.239-.863-2.23-1.898-2.977-3.11-.746-1.21-1.12-2.704-1.12-4.481V59.36c0-1.237.232-2.388.697-3.458a8.79 8.79 0 0 1 1.911-2.801 9.22 9.22 0 0 1 2.822-1.893 8.598 8.598 0 0 1 3.457-.696h3.09a8.61 8.61 0 0 1 3.46.696 9.005 9.005 0 0 1 2.8 1.893 8.997 8.997 0 0 1 1.894 2.801 8.626 8.626 0 0 1 .694 3.458v2.24l4.986-.81v-1.43c0-1.88-.356-3.645-1.062-5.293a13.736 13.736 0 0 0-2.918-4.327 13.749 13.749 0 0 0-4.328-2.918c-1.649-.708-3.413-1.062-5.294-1.062h-3.554c-1.88 0-3.65.354-5.312 1.062a13.654 13.654 0 0 0-4.346 2.918 13.65 13.65 0 0 0-2.918 4.327c-.709 1.648-1.062 3.413-1.062 5.293v1.044c0 2.369.374 4.366 1.12 5.988.747 1.623 1.738 2.995 2.976 4.115a17.327 17.327 0 0 0 4.192 2.8c1.558.749 3.16 1.431 4.81 2.05 1.646.617 3.25 1.236 4.809 1.854 1.558.618 2.956 1.37 4.192 2.26a10.58 10.58 0 0 1 2.976 3.226c.746 1.262 1.12 2.847 1.12 4.752v1.661c0 1.237-.25 2.39-.753 3.46a9.42 9.42 0 0 1-2.028 2.819 9.552 9.552 0 0 1-2.938 1.913 8.99 8.99 0 0 1-3.516.695h-3.477a9.136 9.136 0 0 1-3.534-.695 9.455 9.455 0 0 1-2.956-1.913 9.33 9.33 0 0 1-2.028-2.82 8.023 8.023 0 0 1-.753-3.459v-3.013l-4.986.812v2.201c0 1.88.382 3.646 1.14 5.293a14.346 14.346 0 0 0 3.052 4.329 14.266 14.266 0 0 0 4.444 2.916zm39.005-55.116h-4.986v55.406h4.986V46.533zm39.33 0h-31.41v4.753h13.215v50.653h4.983V51.286h13.213v-4.753zm39.102 50.654h-26.196V76.63h21.212V71.88h-21.212V51.286h26.196v-4.753h-31.182v55.406h31.182v-4.752zM609.63 30.73h-7.922l-6.336 9.504h3.555l10.703-9.504zm-312.883 93.2a13.633 13.633 0 0 0-4.347-2.917c-1.66-.71-3.432-1.064-5.312-1.064h-17.541v55.407h17.54c1.881 0 3.652-.353 5.313-1.063a13.676 13.676 0 0 0 4.347-2.917 13.69 13.69 0 0 0 2.917-4.328c.708-1.646 1.063-3.413 1.063-5.294V133.59c0-1.88-.355-3.65-1.063-5.311a13.654 13.654 0 0 0-2.917-4.347zm-1.005 37.824c0 1.238-.23 2.392-.695 3.46a8.822 8.822 0 0 1-1.913 2.8 9.19 9.19 0 0 1-2.82 1.894c-1.068.465-2.222.694-3.458.694H274.53v-45.9h12.326c1.236 0 2.39.232 3.457.696a9.029 9.029 0 0 1 4.733 4.733c.465 1.068.696 2.222.696 3.457v28.166zm16.847 13.602h31.18v-4.754h-26.196V150.05h21.212v-4.751h-21.212v-20.595h26.197v-4.753h-31.18v55.407zm71.756-9.97l-.155 2.048-.155-2.048-16.807-45.437h-2.589v55.407h4.984v-37.981l.31 2.358 12.981 35.623h2.627l12.867-35.623.346-2.358v37.981h4.986V119.95h-2.628l-16.767 45.437zm56.44-42.23a13.74 13.74 0 0 0-4.328-2.917c-1.649-.708-3.413-1.063-5.294-1.063h-3.941c-1.88 0-3.65.355-5.311 1.063a13.676 13.676 0 0 0-4.347 2.917 13.74 13.74 0 0 0-2.917 4.329c-.71 1.648-1.063 3.413-1.063 5.293v29.75c0 1.88.353 3.645 1.063 5.293a13.77 13.77 0 0 0 2.917 4.329 13.626 13.626 0 0 0 4.347 2.915c1.66.71 3.43 1.063 5.31 1.063h3.942c1.88 0 3.645-.354 5.294-1.063a13.69 13.69 0 0 0 4.328-2.915 13.77 13.77 0 0 0 2.918-4.329c.706-1.648 1.062-3.412 1.062-5.293v-29.75c0-1.88-.356-3.645-1.062-5.293a13.74 13.74 0 0 0-2.918-4.329zm-1.006 39.372c0 1.236-.23 2.389-.694 3.46a9.263 9.263 0 0 1-1.893 2.819c-.8.81-1.734 1.45-2.802 1.911a8.59 8.59 0 0 1-3.459.697h-3.477a8.577 8.577 0 0 1-3.457-.697 9.025 9.025 0 0 1-4.733-4.73 8.598 8.598 0 0 1-.697-3.46v-29.75a8.59 8.59 0 0 1 .697-3.459 8.86 8.86 0 0 1 1.911-2.801 9.243 9.243 0 0 1 2.822-1.894 8.62 8.62 0 0 1 3.457-.694h3.477c1.238 0 2.389.232 3.46.694a9.027 9.027 0 0 1 2.8 1.894 9.027 9.027 0 0 1 1.894 2.801c.465 1.07.694 2.221.694 3.46v29.75zm41.103.155l-.5-2.358-23.106-40.376h-2.59v55.407h4.984v-42.733l.464 2.394 23.105 40.34h2.626V119.95h-4.983v42.734zm10.927-37.981h13.215v50.654h4.983v-50.654h13.213v-4.753H491.81v4.753zm64.553-.772a13.633 13.633 0 0 0-4.347-2.917c-1.66-.71-3.433-1.064-5.31-1.064h-17.544v55.407h4.986v-21.289h12.557c1.878 0 3.65-.353 5.311-1.063a13.675 13.675 0 0 0 4.347-2.917 13.71 13.71 0 0 0 2.917-4.329c.71-1.648 1.063-3.412 1.063-5.293v-6.877c0-1.88-.353-3.65-1.063-5.311a13.674 13.674 0 0 0-2.917-4.347zm-1.004 16.535c0 1.238-.232 2.391-.696 3.46a8.861 8.861 0 0 1-1.911 2.8 9.274 9.274 0 0 1-2.822 1.894c-1.068.465-2.221.694-3.457.694h-12.325v-24.611h12.325c1.236 0 2.389.232 3.457.696a9.099 9.099 0 0 1 2.822 1.912 9.07 9.07 0 0 1 1.911 2.822 8.578 8.578 0 0 1 .696 3.456v6.877zm12.511 34.891h31.182v-4.754h-26.195V150.05h21.211v-4.751h-21.211v-20.595h26.195v-4.753H567.87v55.407zm42.88-55.407h-4.984v55.407h26.196v-4.754H610.75V119.95zm31.326 0h-4.983v55.407h26.195v-4.754h-21.212V119.95zm27.155 55.407h4.986V119.95h-4.986v55.407zm15.679 0h31.181v-4.754h-26.195V150.05h21.212v-4.751h-21.212v-20.595h26.195v-4.753H684.91v55.407zm55.476-23.646c1.88 0 3.644-.354 5.293-1.063a13.683 13.683 0 0 0 4.328-2.918 13.626 13.626 0 0 0 2.915-4.346c.71-1.662 1.063-3.431 1.063-5.312v-4.483c0-1.88-.353-3.65-1.063-5.311a13.626 13.626 0 0 0-2.915-4.347 13.726 13.726 0 0 0-4.328-2.917c-1.649-.71-3.413-1.064-5.293-1.064h-17.58v55.407h4.984v-23.646h6.838l15.031 23.646h5.758l-15.031-23.646zm-12.596-4.752v-22.256h12.363c1.236 0 2.39.232 3.46.696a8.86 8.86 0 0 1 2.8 1.912 9.243 9.243 0 0 1 1.894 2.822 8.62 8.62 0 0 1 .694 3.456v4.483a8.62 8.62 0 0 1-.694 3.457 9.243 9.243 0 0 1-1.893 2.822 8.86 8.86 0 0 1-2.801 1.911 8.598 8.598 0 0 1-3.46.697H727.79z" fill="#ff5660"/><path d="M176.285 152.675l-5.732-14.158-4.147-10.276-3.328-8.24-2.88-7.133-2.694-6.63-2.641-6.55-2.774-6.869v-.026l-3.117-7.713-2.826-6.947c-.29-.74-.687-1.4-1.162-1.981a7.93 7.93 0 0 0-6.049-2.985h-.185c-.74 0-1.453.106-2.14.317-2.218.634-4.068 2.245-5.045 4.411l-11.305 25.49-8.189 18.411-10.54 23.773c-.633 1.11-4.7 7.793-10.169 8.189-.158.026-.343.026-.502.026a7.066 7.066 0 0 1-2.377-.422c-2.826-.978-4.015-2.272-4.623-3.302a4.27 4.27 0 0 1-.264-.476c-1.32-2.773-.766-6.55-.158-8.664.079-.264.132-.475.211-.686.29-.82 1.48-3.857 3.223-8.295.74-1.954 1.637-4.173 2.588-6.603.66-1.69 1.374-3.46 2.087-5.336 2.668-6.736 5.732-14.449 8.717-21.977l9.377 20.075 8.823-18.57-3.857-8.214v-.027l-7.74-16.588a7.896 7.896 0 0 0-5.256-4.358 6.898 6.898 0 0 0-1.823-.238h-.316A7.94 7.94 0 0 0 93 73.8a7.444 7.444 0 0 0-.66 1.294c-.476 1.189-1.691 4.227-3.329 8.374-.95 2.377-2.06 5.124-3.222 8.109-.925 2.298-1.876 4.728-2.88 7.211a609.308 609.308 0 0 1-2.72 6.842c-.898 2.324-1.823 4.649-2.72 6.92-1.031 2.589-2.008 5.098-2.933 7.45-1.268 3.222-2.43 6.154-3.381 8.557-1.268 3.302-2.166 5.6-2.457 6.393a34.221 34.221 0 0 0-1.082 3.988c-.608 2.959-1.03 6.974-.265 11.28.344 2.06.978 4.173 1.981 6.26a21.7 21.7 0 0 0 2.351 3.803c2.166 2.827 5.045 5.098 8.506 6.762 1.004.502 2.034.925 3.117 1.295 2.694.924 5.256 1.347 7.686 1.347 4.412 0 8.374-1.32 11.808-3.328h.026c4.411-2.589 7.924-6.26 10.381-9.694a32.89 32.89 0 0 0 2.457-3.883c.079-.159.158-.317.21-.476l22.586-50.9 9.535 23.587 2.51 6.234 3.46 8.559 5.494 13.603 2.668 6.604c1.241 3.09 4.226 4.966 7.37 4.966.977 0 1.98-.185 2.958-.581 4.041-1.638 6.023-6.26 4.385-10.328l-.555-1.374zm-55.288-99.351h-2.642v39.025h2.642V53.324zm-6.858 27.67l-4.728-26.889-2.603.457 4.728 26.89 2.603-.457zM101.82 67.036l-3.697-10.144-2.482.906L99.34 67.94l2.481-.906zm-9.104 3.622l-5.23-9.06-2.288 1.321 5.23 9.06 2.288-1.32zm-4.621 9.664L77.82 68.066l-2.025 1.697L86.071 82.02l2.025-1.698zm-3.597 8.45L69.443 76.118l-1.7 2.022 15.056 12.653 1.7-2.022zm-3.226 7.555L62.598 85.522l-1.323 2.285 18.674 10.805 1.324-2.286zm-3.09 7.166l-20.708-7.528-.903 2.481 20.709 7.529.903-2.482zm-3.153 7.31l-20.788-3.671-.46 2.6 20.79 3.67.458-2.6zm-3.347 7.877H53.01v2.642h18.674v-2.642zm-3.794 9.109l-14.105 2.481.456 2.6 14.105-2.481-.456-2.6zm-11.315 13.767l.9 2.481 7.713-2.798-.9-2.482-7.713 2.799zm116.883-.583l8.426 3.064.903-2.481-8.426-3.065-.903 2.482zm-4.216-10.901l15.874 2.798.46-2.6-15.875-2.799-.46 2.6zm-3.31-11.392v2.642h20.419v-2.642H165.93zm-2.862-4.986l22.505-3.962-.459-2.6-22.505 3.962.46 2.6zm-2.498-7.165l22.215-8.083-.903-2.481-22.215 8.083.903 2.481zm-2.75-7.017l20.26-11.702-1.321-2.288-20.26 11.702 1.321 2.288zm-2.77-7.477l16.562-13.894-1.698-2.022-16.56 13.894 1.697 2.022zm-3.164-8.377l11.649-13.894-2.025-1.697-11.65 13.893 2.026 1.698zm2.271-20.739l-2.288-1.32-6.63 11.49 2.287 1.321 6.631-11.49zm-10.443-5.123l-2.482-.902-4.807 13.234 2.482.903 4.807-13.235zm-11.166-3.233l-2.603-.457-5.177 29.452 2.603.457 5.177-29.452zM193.32 120c0-41.112-33.447-74.558-74.559-74.558-41.113 0-74.56 33.446-74.56 74.558 0 41.113 33.447 74.56 74.56 74.56 41.112 0 74.558-33.447 74.558-74.56zM118.76 191.79c-39.584 0-71.789-32.206-71.789-71.789s32.205-71.788 71.79-71.788c39.582 0 71.787 32.205 71.787 71.788s-32.205 71.789-71.788 71.789zM83.92 49.4l-4.308-16.9-3.556 1.867L79.64 45.34l-6.972-9.195-3.556 1.867 11.462 13.145 3.344-1.757zm25.342-7.625l-.56-3.255-4.052.698-.628-3.654 2.88-.496-.56-3.255-2.881.497-.568-3.302 4.051-.698-.56-3.255-7.775 1.338 2.878 16.72 7.775-1.338zm-43.857 20.36l-11.8-12.202-2.717 2.627 11.8 12.203 2.717-2.629zm63.126-26.672l1.368.178c1.271 1.652.216 4.8.332 6.493l3.748.487c-.245-1.998 1.012-6.126-.768-7.916 1.168-.52 1.707-1.889 1.958-3.822.459-3.537-.865-5.34-5.276-5.912l-3.748-.488-2.187 16.836 3.75.487.823-6.343zm.968-7.451c1.816.236 2.102.993 1.857 2.879-.245 1.887-.684 2.308-2.5 2.072l.643-4.951zM49.41 82.735l-7.284-4.155 9.214.77 1.871-3.281-14.734-8.403-1.872 3.281 7.698 4.39-9.639-.985-1.86 3.26 14.735 8.404 1.871-3.281zm146.079 19.284l3.175-.913-1.135-3.953 3.565-1.025.808 2.811 3.178-.913-.81-2.812 3.222-.926 1.137 3.954 3.178-.914-2.182-7.586-16.318 4.69 2.182 7.587zm-43.78-53.186c3.967 1.84 5.185.23 6.384-2.36 2.08-4.484-2.917-6.59-1.659-9.307.57-1.23.875-1.43 1.35-1.21.536.25.405.765-.465 2.64l3.75 1.74c1.471-3.17 1.337-5.878-1.81-7.338-3.495-1.618-4.978-.788-6.449 2.382-2.138 4.615 2.86 6.487 1.543 9.333-.4.863-.738 1.362-1.254 1.122-.67-.31-.14-1.452.5-2.832l-3.753-1.74c-1.467 3.17-1.847 5.85 1.863 7.57zm30.72-.263l-2.871-2.461L168.507 59l2.87 2.461L182.43 48.57zm33.289 48.598l-1.228-4.273-3.38-1.601.978 3.405 3.63 2.47zm-18.841-26.476l1.872 2.835 2.758-1.82-5.83-8.825-2.755 1.82 1.873 2.836-11.402 7.533 2.082 3.153 11.402-7.532zm-155.124 34.53c.828-4.317-.133-5.615-6.644-6.863l-9.264-1.776-.725 3.78 9.264 1.776c3.688.708 4.58 1.097 4.312 2.497-.268 1.4-1.242 1.43-4.93.724l-9.264-1.776-.725 3.781 9.265 1.776c6.51 1.248 7.884.399 8.71-3.92zm77.007-90.604C60.652 14.618 13.376 61.892 13.376 120c0 58.107 47.276 105.382 105.384 105.382S224.143 178.107 224.143 120c0-58.108-47.275-105.382-105.383-105.382zm0 207.994C62.18 222.612 16.147 176.58 16.147 120S62.179 17.388 118.76 17.388c56.58 0 102.612 46.032 102.612 102.612S175.34 222.612 118.76 222.612zm86.302-83.417c-.367-1.226-1.66-1.93-3.542-2.423-3.446-.9-5.4.186-6.521 4.486l-.952 3.655 16.411 4.28.952-3.655-6.183-1.613.348-1.333c1.795-1.053 4.782.39 6.477.487l.952-3.655c-2.01-.01-5.946-1.772-7.942-.23zm-2.273 4.096l-4.824-1.259c.46-1.77 1.246-1.958 3.085-1.478 1.837.477 2.2.965 1.739 2.737zm-31.197 52.984l-7.79-11.221-3.101 2.154 9.67 13.937 6.285-4.362-1.884-2.716-3.18 2.208zM129.068 212.2l-.413-3.684 2.907-.327-.368-3.281-2.905.322-.371-3.328 4.086-.456-.37-3.284-7.841.877 1.888 16.865 7.842-.877-.366-3.284-4.089.457zm22.421-5.37l-4.823-12.793-3.537 1.334 5.987 15.885 7.164-2.7-1.166-3.094-3.625 1.367zm24.328-32.02l12.514 11.47 2.556-2.788-12.516-11.471-2.554 2.788zm23.523-8.818l-3.222-1.831 1.445-2.543-2.869-1.633-1.447 2.54-2.91-1.658 2.03-3.573-2.865-1.633-3.903 6.857 14.742 8.391 3.9-6.854-2.868-1.635-2.033 3.572zm-93.202 32.126l-3.737-.55-2.461 16.788 3.737.55.79-5.386c4.395.645 6.224-1.179 6.74-4.705.552-3.759-.673-6.054-5.069-6.697zm1.329 6.176c-.276 1.878-.756 2.528-2.567 2.262l.795-5.404c1.808.265 2.048 1.261 1.772 3.142zm-44.32-16.117l2.768-9.287-2.856-2.435-11.009 12.908 2.875 2.453 5.443-6.384-2.475 8.912 2.874 2.45 11.007-12.91-2.875-2.453-5.751 6.746zm-10.484-25.252c-2.792-4.284-5.193-3.175-10.372.204-5.36 3.495-7.125 5.1-4.333 9.382 2.794 4.285 4.974 3.317 10.334-.175 5.18-3.38 7.165-5.126 4.371-9.41zm-6.645 5.92c-3.945 2.575-4.64 2.859-5.29 1.863-.65-.998-.109-1.52 3.835-4.094 3.866-2.52 4.68-2.879 5.33-1.883.65.998-.01 1.597-3.875 4.114zm-2.601-24.588l-9.154.374 7.927-4.6-1.118-3.86-16.31 4.73 1.054 3.63 7.356-2.134-6.997 3.367.655 2.262 7.697-.944-7.353 2.133 1.053 3.632 16.308-4.73-1.118-3.86zm36.812 48.8l3.096 1.393-5.61 12.46 3.446 1.552 5.61-12.459 3.1 1.396 1.358-3.013-9.643-4.342-1.357 3.013zM27.566 120a2.641 2.641 0 1 0 5.283 0 2.641 2.641 0 0 0-5.283 0zm177.68-.106a2.536 2.536 0 1 0 5.072 0 2.536 2.536 0 0 0-5.072 0z" fill="#fff"/></svg>